[Header]
FileType HTR
DataType HTRS
FileVersion 1
NumSegments 22
NumFrames 8
DataFrameRate 24
EulerRotationOrder ZYX
CalibrationUnits mm
RotationUnits Degrees
GlobalAxisofGravity Y
BoneLengthAxis Y
ScaleFactor 1.0
[SegmentNames&Hierarchy]
reference	GLOBAL
Hips	reference
Spine	Hips
Spine1	Spine
Neck	Spine1
Head	Neck
LeftShoulder	Spine1
LeftArm	LeftShoulder
LeftForeArm	LeftArm
LeftHand	LeftForeArm
RightShoulder	Spine1
RightArm	RightShoulder
RightForeArm	RightArm
RightHand	RightForeArm
LeftUpLeg	Hips
LeftLeg	LeftUpLeg
LeftFoot	LeftLeg
LeftToeBase	LeftFoot
RightUpLeg	Hips
RightLeg	RightUpLeg
RightFoot	RightLeg
RightToeBase	RightFoot
[BasePosition]
reference	0	0	0	0	0	0	1
Hips	0	0	0	0	0	0	1
Spine	0	0	0	0	-0	90	1
Spine1	0	0	0	0	0	0	1
Neck	0	0	0	-7.352327771	-7.352327771	90	1
Head	0	0	0	0	-0	90	1
LeftShoulder	0	0	0	0	0	0	1
LeftArm	0	0	0	0	0	0	1
LeftForeArm	0	0	0	0	0	0	1
LeftHand	0	0	0	0	0	0	1
RightShoulder	0	0	0	0	-0	180	1
RightArm	0	0	0	0	-0	180	1
RightForeArm	0	0	0	0	-0	180	1
RightHand	0	0	0	0	-0	180	1
LeftUpLeg	0	0	0	0	-0	-90	1
LeftLeg	0	0	0	0	-0	-90	1
LeftFoot	0	0	0	66.57146043	-66.57146043	-90	1
LeftToeBase	0	0	0	0	-90	0	1
RightUpLeg	0	0	0	0	-0	-90	1
RightLeg	0	0	0	0	-0	-90	1
RightFoot	0	0	0	66.57146043	-66.57146043	-90	1
RightToeBase	0	0	0	0	-90	0	1
[reference]
46	0	0	0	0	-0	0	1.0
47	0	0	0	0	-0	0	1.0
48	0	0	0	0	-0	0	1.0
49	0	0	0	0	-0	0	1.0
50	0	0	0	0	-0	0	1.0
51	0	0	0	0	-0	0	1.0
52	0	0	0	0	-0	0	1.0
53	0	0	0	0	-0	0	1.0
[Hips]
46	4.103910446	8.426560402	1.204416394	1.570362091	-129.7146301	0.01939391904	1.0
47	3.984829187	8.472437859	1.230569482	2.218258381	-130.3928375	0.2488827109	1.0
48	3.851082325	8.484395027	1.257136822	2.804311991	-131.2121429	0.8058306575	1.0
49	3.70656991	8.47274971	1.290625453	2.985107422	-132.0434875	1.316925049	1.0
50	3.581105471	8.378458977	1.345189214	3.798390865	-132.4055328	1.58687675	1.0
51	3.508074522	8.361187935	1.371659994	4.991153717	-132.266861	1.325613499	1.0
52	3.493357658	8.353652	1.382738829	5.131840706	-132.9174194	2.040024757	1.0
53	3.483730793	8.351805687	1.391404271	5.186980247	-134.4319611	2.307147026	1.0
[Spine]
46	0	0.7457100153	0	-5.412631989	1.004187822	-90.15940857	1.0
47	0	0.7457100153	0	-5.655444145	1.032922983	-90.25540161	1.0
48	0	0.7457100153	0	-5.653763294	0.9843122363	-90.31871033	1.0
49	0	0.7457100153	0	-5.567787647	0.6732459068	-90.57457733	1.0
50	0	0.7457100153	0	-5.826085567	-0.08517082036	-91.14402008	1.0
51	0	0.7457100153	0	-6.084712982	-0.9302194715	-91.79290771	1.0
52	0	0.7457100153	0	-6.567612648	-0.8521835208	-91.69106293	1.0
53	0	0.7457100153	0	-6.8995471	-0.3179650307	-91.64948273	1.0
[Spine1]
46	0	2.140589952	0	3.881682873	0.2269112468	3.189024925	1.0
47	0	2.140589952	0	3.390271664	0.2614654303	2.89816761	1.0
48	0	2.140589952	0	2.506511927	0.2777453959	2.463567495	1.0
49	0	2.140589952	0	1.898086905	0.1942333728	2.244269848	1.0
50	0	2.140589952	0	1.389011979	-0.04656869918	2.509755611	1.0
51	0	2.140589952	0	1.603721976	-0.3344089985	3.047679663	1.0
52	0	2.140589952	0	2.200110912	-0.3321276009	3.584361315	1.0
53	0	2.140589952	0	2.19873476	-0.1569692641	4.129840851	1.0
[Neck]
46	0	2.32246995	0	-12.67911625	16.11731339	-93.37841797	1.0
47	0	2.32246995	0	-14.09003353	16.12524605	-92.9475708	1.0
48	0	2.32246995	0	-15.07501888	16.21035576	-91.51191711	1.0
49	0	2.32246995	0	-15.92441082	16.39602661	-89.79902649	1.0
50	0	2.32246995	0	-16.459095	16.45491028	-88.60015869	1.0
51	0	2.32246995	0	-17.88732719	16.22449303	-88.43914032	1.0
52	0	2.32246995	0	-19.79896927	16.09507751	-88.47422791	1.0
53	0	2.32246995	0	-20.25964928	16.14221954	-88.74848938	1.0
[Head]
46	0	1.409579992	0.1818799973	-3.80648756	9.560041428	-93.19282532	1.0
47	0	1.409579992	0.1818799973	-2.793590307	9.627228737	-92.98716736	1.0
48	0	1.409579992	0.1818799973	-2.040751934	9.699480057	-93.04377747	1.0
49	0	1.409579992	0.1818799973	-1.520099282	9.809470177	-93.00986481	1.0
50	0	1.409579992	0.1818799973	-2.069220066	9.741912842	-92.86520386	1.0
51	0	1.409579992	0.1818799973	-2.692406178	9.419967651	-92.53866577	1.0
52	0	1.409579992	0.1818799973	-2.372408867	9.292907715	-92.51506042	1.0
53	0	1.409579992	0.1818799973	-2.23031354	9.364783287	-92.39647675	1.0
[LeftShoulder]
46	0.3668199778	1.946700096	-0.02662999928	-18.11203957	-12.5837326	1.389445066	1.0
47	0.3668199778	1.946700096	-0.02662999928	-17.45443535	-12.85096359	1.07263267	1.0
48	0.3668199778	1.946700096	-0.02662999928	-17.3327446	-13.11402321	1.141729951	1.0
49	0.3668199778	1.946700096	-0.02662999928	-17.81028938	-13.50351048	1.062891126	1.0
50	0.3668199778	1.946700096	-0.02662999928	-17.89780235	-13.96391964	0.8903526068	1.0
51	0.3668199778	1.946700096	-0.02662999928	-17.87537003	-14.37186432	0.9274001122	1.0
52	0.3668199778	1.946700096	-0.02662999928	-17.68510818	-14.88192844	1.171429634	1.0
53	0.3668199778	1.946700096	-0.02662999928	-17.83701706	-14.83222961	1.334313989	1.0
[LeftArm]
46	1.140689969	0	0	39.63542175	-5.097043037	-62.6824379	1.0
47	1.140689969	0	0	39.74956512	-5.661786556	-62.06253052	1.0
48	1.140689969	0	0	39.78688812	-5.528567314	-62.08056641	1.0
49	1.140689969	0	0	39.32286453	-4.6882267	-62.31830597	1.0
50	1.140689969	0	0	38.65283203	-4.46112299	-62.62813187	1.0
51	1.140689969	0	0	37.59421539	-5.219162464	-63.02234268	1.0
52	1.140689969	0	0	37.30250168	-6.407093048	-63.14959717	1.0
53	1.140689969	0	0	37.34766388	-6.62613821	-62.97947693	1.0
[LeftForeArm]
46	2.749800205	0	0	59.90890503	-137.8592682	-24.11026001	1.0
47	2.749800205	0	0	60.47766113	-138.3681641	-24.49454117	1.0
48	2.749800205	0	0	60.84622192	-138.3641968	-24.80145264	1.0
49	2.749800205	0	0	61.63669586	-137.6981354	-25.2638092	1.0
50	2.749800205	0	0	61.71375656	-138.0420532	-25.71802902	1.0
51	2.749800205	0	0	62.97053528	-138.3073883	-26.26810455	1.0
52	2.749800205	0	0	64.60759735	-139.0386047	-26.78712845	1.0
53	2.749800205	0	0	65.11973572	-139.4889832	-26.87402534	1.0
[LeftHand]
46	2.295179844	0	0	-1.535474062	-20.05412483	19.27792549	1.0
47	2.295179844	0	0	-2.412953138	-19.78333855	19.52362823	1.0
48	2.295179844	0	0	-2.675779581	-19.68707657	19.62086487	1.0
49	2.295179844	0	0	-2.212779522	-20.42957878	20.21874428	1.0
50	2.295179844	0	0	-3.290567875	-19.27942276	20.20440102	1.0
51	2.295179844	0	0	-3.341375351	-18.99331856	19.60247231	1.0
52	2.295179844	0	0	-3.703782558	-18.68643188	19.67724991	1.0
53	2.295179844	0	0	-4.018371105	-18.58276367	19.92755127	1.0
[RightShoulder]
46	-0.3601199985	1.946700096	-0.02662999928	-7.599509239	4.179037571	174.6764832	1.0
47	-0.3601199985	1.946700096	-0.02662999928	-7.502122402	4.251152992	174.5941772	1.0
48	-0.3601199985	1.946700096	-0.02662999928	-7.4758358	4.21187973	174.9243469	1.0
49	-0.3601199985	1.946700096	-0.02662999928	-7.710050106	3.99917841	175.0944214	1.0
50	-0.3601199985	1.946700096	-0.02662999928	-8.242852211	3.601200342	174.588501	1.0
51	-0.3601199985	1.946700096	-0.02662999928	-8.408298492	3.167451382	174.0182495	1.0
52	-0.3601199985	1.946700096	-0.02662999928	-7.817913055	3.024784565	174.3961487	1.0
53	-0.3601199985	1.946700096	-0.02662999928	-8.029193878	3.112863541	174.3551178	1.0
[RightArm]
46	-1.140689969	0	0	56.21757507	6.324980259	-106.0232239	1.0
47	-1.140689969	0	0	56.67725372	6.569519997	-106.0802689	1.0
48	-1.140689969	0	0	57.23928833	6.62008667	-106.2031555	1.0
49	-1.140689969	0	0	57.73457336	6.635065556	-106.0657349	1.0
50	-1.140689969	0	0	57.72203064	6.589357376	-105.2056961	1.0
51	-1.140689969	0	0	56.88242722	6.861742973	-104.5489044	1.0
52	-1.140689969	0	0	56.75980759	7.486694813	-104.776474	1.0
53	-1.140689969	0	0	56.78116608	6.8828969	-104.467659	1.0
[RightForeArm]
46	-2.749800205	0	0	-103.6682587	44.10904312	32.99201202	1.0
47	-2.749800205	0	0	-103.2927399	43.78334045	33.04875946	1.0
48	-2.749800205	0	0	-103.1579819	43.65191269	33.19464874	1.0
49	-2.749800205	0	0	-102.8427124	43.78581238	33.33938599	1.0
50	-2.749800205	0	0	-102.8958511	44.18898392	33.32026291	1.0
51	-2.749800205	0	0	-104.004509	44.35446167	32.47493744	1.0
52	-2.749800205	0	0	-103.495079	43.30233765	32.28120804	1.0
53	-2.749800205	0	0	-102.9318237	42.97979736	32.51716995	1.0
[RightHand]
46	-2.295179844	0	0	0.1819450408	17.34985733	155.3526917	1.0
47	-2.295179844	0	0	-0.002422966063	17.25838852	155.1437225	1.0
48	-2.295179844	0	0	-0.2546522915	17.13833237	155.2951965	1.0
49	-2.295179844	0	0	0.02349741198	17.27872849	155.6816254	1.0
50	-2.295179844	0	0	0.5290482044	17.42466354	155.6936493	1.0
51	-2.295179844	0	0	1.089272261	17.63937378	155.7532196	1.0
52	-2.295179844	0	0	0.5325714946	17.40530396	155.6663208	1.0
53	-2.295179844	0	0	0.198907271	17.49867439	155.609314	1.0
[LeftUpLeg]
46	0.9094099998	0	0	-24.60666656	0.280082345	101.6301117	1.0
47	0.9094099998	0	0	-22.56669998	-0.2466352433	100.6281128	1.0
48	0.9094099998	0	0	-20.60912895	-0.8336673975	100.3734665	1.0
49	0.9094099998	0	0	-19.64980888	0.5711756349	99.98154449	1.0
50	0.9094099998	0	0	-21.78470612	6.094333172	98.32897949	1.0
51	0.9094099998	0	0	-24.99773407	10.44128609	95.92286682	1.0
52	0.9094099998	0	0	-26.68584061	9.134378433	96.80077362	1.0
53	0.9094099998	0	0	-25.76187897	8.17300415	97.76889801	1.0
[LeftLeg]
46	0	-4.498080254	0	38.6362381	-2.784071445	74.311203	1.0
47	0	-4.498080254	0	34.58529663	-2.347617149	77.17156982	1.0
48	0	-4.498080254	0	30.71656227	1.113550425	80.23651886	1.0
49	0	-4.498080254	0	29.64855957	2.964495659	81.41272736	1.0
50	0	-4.498080254	0	33.95585251	-3.288496017	77.56715393	1.0
51	0	-4.498080254	0	39.7090683	-6.793777466	75.67770386	1.0
52	0	-4.498080254	0	42.72061157	-8.260402679	71.43556976	1.0
53	0	-4.498080254	0	40.94484329	-7.092749119	71.08512878	1.0
[LeftFoot]
46	0	-3.729400158	0	-42.56539917	108.6891251	3.891356468	1.0
47	0	-3.729400158	0	-50.27609253	106.9741821	-4.60067749	1.0
48	0	-3.729400158	0	-55.65193939	103.2010574	-9.821778297	1.0
49	0	-3.729400158	0	-71.31996918	100.8624954	-23.19207764	1.0
50	0	-3.729400158	0	-72.19426727	105.0064697	-19.28854561	1.0
51	0	-3.729400158	0	-75.46673584	106.8995514	-19.78335571	1.0
52	0	-3.729400158	0	-67.75315857	110.8958588	-9.87112999	1.0
53	0	-3.729400158	0	-66.43814087	111.8691635	-8.250656128	1.0
[LeftToeBase]
46	0	-0.5911099911	1.364109993	0	0	0	1.0
47	0	-0.5911099911	1.364109993	0	0	0	1.0
48	0	-0.5911099911	1.364109993	0	0	0	1.0
49	0	-0.5911099911	1.364109993	0	0	0	1.0
50	0	-0.5911099911	1.364109993	0	0	0	1.0
51	0	-0.5911099911	1.364109993	0	0	0	1.0
52	0	-0.5911099911	1.364109993	0	0	0	1.0
53	0	-0.5911099911	1.364109993	0	0	0	1.0
[RightUpLeg]
46	-0.9094099998	0	0	3.278513193	-16.49721527	86.22982788	1.0
47	-0.9094099998	0	0	3.256083965	-15.14073658	85.91003418	1.0
48	-0.9094099998	0	0	3.13746953	-14.34792519	85.69081116	1.0
49	-0.9094099998	0	0	2.670765877	-13.71008492	85.47465515	1.0
50	-0.9094099998	0	0	1.189405441	-13.21781635	85.43637085	1.0
51	-0.9094099998	0	0	-0.2275767475	-13.76581478	85.32761383	1.0
52	-0.9094099998	0	0	-1.770808935	-13.1253376	85.86708069	1.0
53	-0.9094099998	0	0	-2.558648825	-12.44722462	86.13278961	1.0
[RightLeg]
46	0	-4.498080254	0	29.48244286	-1.86792469	83.40346527	1.0
47	0	-4.498080254	0	27.59576416	-1.900913358	83.83529663	1.0
48	0	-4.498080254	0	26.59434128	-1.535053968	83.79229736	1.0
49	0	-4.498080254	0	27.08461761	-1.29040277	83.28314209	1.0
50	0	-4.498080254	0	29.13052368	0.1567831933	82.6902771	1.0
51	0	-4.498080254	0	30.86767578	-2.574922085	79.95522308	1.0
52	0	-4.498080254	0	32.78585434	-1.949780226	79.26587677	1.0
53	0	-4.498080254	0	33.25135422	-2.272886992	78.77008057	1.0
[RightFoot]
46	0	-3.729400158	0	55.42063141	51.1987381	106.4235687	1.0
47	0	-3.729400158	0	57.50284576	50.66662598	104.859108	1.0
48	0	-3.729400158	0	58.85918427	49.98020172	104.3748093	1.0
49	0	-3.729400158	0	58.29018021	50.08151245	104.2043762	1.0
50	0	-3.729400158	0	54.72174835	48.95476913	103.7010727	1.0
51	0	-3.729400158	0	55.97200775	48.97416687	108.497757	1.0
52	0	-3.729400158	0	53.61161041	48.65233231	107.5194626	1.0
53	0	-3.729400158	0	53.17722702	50.60235596	106.2178421	1.0
[RightToeBase]
46	0	-0.5911099911	1.364109993	0	0	0	1.0
47	0	-0.5911099911	1.364109993	0	0	0	1.0
48	0	-0.5911099911	1.364109993	0	0	0	1.0
49	0	-0.5911099911	1.364109993	0	0	0	1.0
50	0	-0.5911099911	1.364109993	0	0	0	1.0
51	0	-0.5911099911	1.364109993	0	0	0	1.0
52	0	-0.5911099911	1.364109993	0	0	0	1.0
53	0	-0.5911099911	1.364109993	0	0	0	1.0
[EndOfFile]
